<mxfile host="Electron" agent="Mozilla/5.0 (Macintosh; Intel Mac OS X 10_15_7) AppleWebKit/537.36 (KHTML, like Gecko) draw.io/24.7.8 Chrome/128.0.6613.36 Electron/32.0.1 Safari/537.36" version="24.7.8">
  <diagram name="Page-1" id="0mNQpZ5gWgdwODDEsCQO">
    <mxGraphModel dx="1782" dy="1046" grid="1" gridSize="10" guides="1" tooltips="1" connect="1" arrows="1" fold="1" page="1" pageScale="1" pageWidth="850" pageHeight="1100" math="0" shadow="0">
      <root>
        <mxCell id="0" />
        <mxCell id="1" parent="0" />
        <mxCell id="-9pS1q8vQVi0JjwYOpcI-103" value="&lt;b&gt;&lt;font&gt;legacy&lt;br&gt;cluster&lt;br&gt;&lt;/font&gt;&lt;/b&gt;" style="shape=ext;margin=3;double=0;whiteSpace=wrap;html=1;align=right;rounded=1;spacingRight=5;verticalAlign=top;movable=1;resizable=1;rotatable=1;deletable=1;editable=1;connectable=1;arcSize=6;fillColor=none;fontColor=default;strokeColor=#000000;" parent="1" vertex="1">
          <mxGeometry x="1000" y="850" width="400" height="110" as="geometry" />
        </mxCell>
        <mxCell id="-9pS1q8vQVi0JjwYOpcI-1" style="rounded=0;orthogonalLoop=1;jettySize=auto;html=1;exitX=0.875;exitY=0.5;exitDx=0;exitDy=0;exitPerimeter=0;entryX=0;entryY=0.5;entryDx=0;entryDy=0;strokeColor=#000000;fontColor=default;" parent="1" source="-9pS1q8vQVi0JjwYOpcI-2" target="-9pS1q8vQVi0JjwYOpcI-3" edge="1">
          <mxGeometry relative="1" as="geometry">
            <mxPoint x="-701.25" y="470.99" as="targetPoint" />
            <mxPoint x="-307.25" y="495.49" as="sourcePoint" />
          </mxGeometry>
        </mxCell>
        <mxCell id="-9pS1q8vQVi0JjwYOpcI-2" value="&lt;b&gt;&lt;font style=&quot;font-size: 20px&quot;&gt;Internet&lt;/font&gt;&lt;/b&gt;" style="ellipse;shape=cloud;whiteSpace=wrap;html=1;align=center;dashed=1;fillColor=none;strokeColor=#000000;fontColor=default;" parent="1" vertex="1">
          <mxGeometry x="120" y="466.24" width="120" height="80" as="geometry" />
        </mxCell>
        <mxCell id="-9pS1q8vQVi0JjwYOpcI-3" value="&lt;b style=&quot;font-size: 16px&quot;&gt;ITS&lt;br&gt;DNS&lt;/b&gt;" style="ellipse;whiteSpace=wrap;html=1;align=center;dashed=1;rounded=1;fillColor=none;strokeColor=#000000;fontColor=default;" parent="1" vertex="1">
          <mxGeometry x="260.5" y="470" width="80" height="72.73" as="geometry" />
        </mxCell>
        <mxCell id="-9pS1q8vQVi0JjwYOpcI-4" value="&lt;font style=&quot;font-size: 30px&quot;&gt;&lt;b&gt;LTC Infrastructure&lt;br&gt;August 2025&lt;/b&gt;&lt;/font&gt;" style="text;html=1;strokeColor=none;fillColor=none;align=left;verticalAlign=middle;whiteSpace=wrap;rounded=0;fontColor=default;" parent="1" vertex="1">
          <mxGeometry x="120" y="120" width="280" height="110" as="geometry" />
        </mxCell>
        <mxCell id="-9pS1q8vQVi0JjwYOpcI-5" style="rounded=0;orthogonalLoop=1;jettySize=auto;html=1;exitX=1;exitY=0.5;exitDx=0;exitDy=0;entryX=0.1;entryY=0.5;entryDx=0;entryDy=0;strokeColor=#000000;fontColor=default;entryPerimeter=0;" parent="1" source="-9pS1q8vQVi0JjwYOpcI-3" target="-9pS1q8vQVi0JjwYOpcI-99" edge="1">
          <mxGeometry relative="1" as="geometry">
            <mxPoint x="480.25" y="470.24" as="targetPoint" />
            <mxPoint x="120.25" y="489.74" as="sourcePoint" />
          </mxGeometry>
        </mxCell>
        <mxCell id="-9pS1q8vQVi0JjwYOpcI-7" style="rounded=0;orthogonalLoop=1;jettySize=auto;html=1;exitX=0.1;exitY=0.5;exitDx=0;exitDy=0;entryX=0;entryY=0.5;entryDx=0;entryDy=0;exitPerimeter=0;strokeColor=#000000;fontColor=default;" parent="1" source="-9pS1q8vQVi0JjwYOpcI-36" target="-9pS1q8vQVi0JjwYOpcI-54" edge="1">
          <mxGeometry relative="1" as="geometry">
            <mxPoint x="674.0000000000009" y="425" as="targetPoint" />
            <mxPoint x="550" y="675" as="sourcePoint" />
            <Array as="points">
              <mxPoint x="800" y="490" />
              <mxPoint x="920" y="265" />
            </Array>
          </mxGeometry>
        </mxCell>
        <mxCell id="-9pS1q8vQVi0JjwYOpcI-8" style="rounded=0;orthogonalLoop=1;jettySize=auto;html=1;exitX=0.1;exitY=0.5;exitDx=0;exitDy=0;entryX=0;entryY=0.5;entryDx=0;entryDy=0;exitPerimeter=0;strokeColor=#000000;fontColor=default;" parent="1" source="-9pS1q8vQVi0JjwYOpcI-36" target="-9pS1q8vQVi0JjwYOpcI-62" edge="1">
          <mxGeometry relative="1" as="geometry">
            <mxPoint x="950" y="300" as="targetPoint" />
            <mxPoint x="458" y="490" as="sourcePoint" />
            <Array as="points">
              <mxPoint x="800" y="500" />
              <mxPoint x="920" y="395" />
            </Array>
          </mxGeometry>
        </mxCell>
        <mxCell id="-9pS1q8vQVi0JjwYOpcI-9" style="rounded=0;orthogonalLoop=1;jettySize=auto;html=1;exitX=0.1;exitY=0.5;exitDx=0;exitDy=0;entryX=0;entryY=0.5;entryDx=0;entryDy=0;exitPerimeter=0;strokeColor=#000000;fontColor=default;" parent="1" source="-9pS1q8vQVi0JjwYOpcI-36" target="-9pS1q8vQVi0JjwYOpcI-71" edge="1">
          <mxGeometry relative="1" as="geometry">
            <mxPoint x="950" y="410" as="targetPoint" />
            <mxPoint x="458" y="490" as="sourcePoint" />
            <Array as="points">
              <mxPoint x="800" y="510" />
              <mxPoint x="920" y="525" />
            </Array>
          </mxGeometry>
        </mxCell>
        <mxCell id="-9pS1q8vQVi0JjwYOpcI-10" style="rounded=0;orthogonalLoop=1;jettySize=auto;html=1;exitX=1;exitY=0.5;exitDx=0;exitDy=0;strokeColor=#000000;fontColor=default;entryX=0.1;entryY=0.5;entryDx=0;entryDy=0;entryPerimeter=0;" parent="1" source="-9pS1q8vQVi0JjwYOpcI-3" target="-9pS1q8vQVi0JjwYOpcI-33" edge="1">
          <mxGeometry relative="1" as="geometry">
            <mxPoint x="650" y="960" as="targetPoint" />
            <mxPoint x="60.000000000010914" y="565" as="sourcePoint" />
            <Array as="points" />
          </mxGeometry>
        </mxCell>
        <mxCell id="-9pS1q8vQVi0JjwYOpcI-11" style="rounded=0;orthogonalLoop=1;jettySize=auto;html=1;exitX=0.1;exitY=0.5;exitDx=0;exitDy=0;exitPerimeter=0;strokeColor=#000000;fontColor=default;entryX=0;entryY=0.5;entryDx=0;entryDy=0;" parent="1" source="-9pS1q8vQVi0JjwYOpcI-36" target="-9pS1q8vQVi0JjwYOpcI-15" edge="1">
          <mxGeometry relative="1" as="geometry">
            <mxPoint x="1040" y="750" as="targetPoint" />
            <mxPoint x="458" y="530" as="sourcePoint" />
            <Array as="points">
              <mxPoint x="800" y="530" />
              <mxPoint x="920" y="750" />
            </Array>
          </mxGeometry>
        </mxCell>
        <mxCell id="-9pS1q8vQVi0JjwYOpcI-12" value="prod4&lt;i&gt;&lt;br&gt;&lt;/i&gt;.76.41" style="rounded=1;arcSize=10;whiteSpace=wrap;html=1;align=center;fillColor=#ffe6cc;strokeColor=#d79b00;" parent="1" vertex="1">
          <mxGeometry x="1120" y="980" width="100" height="40" as="geometry" />
        </mxCell>
        <mxCell id="-9pS1q8vQVi0JjwYOpcI-13" value="prod1&lt;br&gt;.76.65" style="rounded=1;arcSize=10;whiteSpace=wrap;html=1;align=center;fillColor=#ffe6cc;strokeColor=#000000;fontColor=default;" parent="1" vertex="1">
          <mxGeometry x="1010" y="980" width="100" height="40" as="geometry" />
        </mxCell>
        <mxCell id="-9pS1q8vQVi0JjwYOpcI-14" value="vault-01&lt;br&gt;.76.63" style="rounded=1;arcSize=10;whiteSpace=wrap;html=1;align=center;fillColor=#ffe6cc;strokeColor=#d79b00;" parent="1" vertex="1">
          <mxGeometry x="760" y="170" width="100" height="40" as="geometry" />
        </mxCell>
        <mxCell id="-9pS1q8vQVi0JjwYOpcI-15" value="utility-01&lt;br&gt;.110.66" style="rounded=1;arcSize=10;whiteSpace=wrap;html=1;align=center;fillColor=#d5e8d4;strokeColor=#82b366;" parent="1" vertex="1">
          <mxGeometry x="1010" y="730" width="100" height="40" as="geometry" />
        </mxCell>
        <mxCell id="-9pS1q8vQVi0JjwYOpcI-17" value="&lt;font&gt;prod-admin1&lt;br&gt;.110.51&lt;/font&gt;" style="rounded=1;arcSize=10;whiteSpace=wrap;html=1;align=center;fillColor=#ffe6cc;strokeColor=#000000;fontColor=default;" parent="1" vertex="1">
          <mxGeometry x="1230" y="980" width="100" height="40" as="geometry" />
        </mxCell>
        <mxCell id="-9pS1q8vQVi0JjwYOpcI-18" value="admin-02&lt;i style=&quot;border-color: var(--border-color);&quot;&gt;&lt;br style=&quot;border-color: var(--border-color);&quot;&gt;&lt;/i&gt;.76.194" style="whiteSpace=wrap;html=1;align=center;rounded=1;strokeColor=#d79b00;fillColor=#ffe6cc;perimeterSpacing=1;container=0;arcSize=10;strokeWidth=1;" parent="1" vertex="1">
          <mxGeometry x="1380" y="730" width="100" height="40" as="geometry" />
        </mxCell>
        <mxCell id="-9pS1q8vQVi0JjwYOpcI-19" value="" style="shape=curlyBracket;whiteSpace=wrap;html=1;rounded=1;rotation=0;strokeColor=#000000;fontColor=default;" parent="1" vertex="1">
          <mxGeometry x="885" y="1110" width="20" height="60" as="geometry" />
        </mxCell>
        <mxCell id="-9pS1q8vQVi0JjwYOpcI-20" value="gate-03&lt;br&gt;.110.54" style="rounded=1;arcSize=10;whiteSpace=wrap;html=1;align=center;fillColor=#dae8fc;strokeColor=#6c8ebf;" parent="1" vertex="1">
          <mxGeometry x="715" y="1120" width="100" height="40" as="geometry" />
        </mxCell>
        <mxCell id="-9pS1q8vQVi0JjwYOpcI-21" style="rounded=0;orthogonalLoop=1;jettySize=auto;html=1;strokeColor=#000000;entryX=0.1;entryY=0.5;entryDx=0;entryDy=0;entryPerimeter=0;exitX=1;exitY=0.5;exitDx=0;exitDy=0;fontColor=default;" parent="1" source="-9pS1q8vQVi0JjwYOpcI-20" target="-9pS1q8vQVi0JjwYOpcI-19" edge="1">
          <mxGeometry relative="1" as="geometry">
            <mxPoint x="3605" y="1822.4299999999998" as="targetPoint" />
            <mxPoint x="734.9999999999991" y="1160" as="sourcePoint" />
          </mxGeometry>
        </mxCell>
        <mxCell id="-9pS1q8vQVi0JjwYOpcI-31" style="rounded=0;orthogonalLoop=1;jettySize=auto;html=1;exitX=0.1;exitY=0.5;exitDx=0;exitDy=0;entryX=0;entryY=0.5;entryDx=0;entryDy=0;exitPerimeter=0;strokeColor=#000000;fontColor=default;" parent="1" source="-9pS1q8vQVi0JjwYOpcI-36" target="-9pS1q8vQVi0JjwYOpcI-78" edge="1">
          <mxGeometry relative="1" as="geometry">
            <mxPoint x="930" y="625" as="targetPoint" />
            <mxPoint x="538.0000000000009" y="519.75" as="sourcePoint" />
            <Array as="points">
              <mxPoint x="800" y="520" />
              <mxPoint x="920" y="655" />
            </Array>
          </mxGeometry>
        </mxCell>
        <mxCell id="-9pS1q8vQVi0JjwYOpcI-32" value="web.ltc.bcit.ca&lt;br&gt;142.232.76.206&lt;br&gt;(VIP)" style="text;html=1;strokeColor=none;fillColor=none;align=center;verticalAlign=middle;whiteSpace=wrap;rounded=0;fontColor=#0066CC;fontStyle=1;" parent="1" vertex="1">
          <mxGeometry x="480" y="460" width="120" height="40" as="geometry" />
        </mxCell>
        <mxCell id="-9pS1q8vQVi0JjwYOpcI-33" value="" style="shape=curlyBracket;whiteSpace=wrap;html=1;rounded=1;strokeColor=#000000;fontColor=default;" parent="1" vertex="1">
          <mxGeometry x="675" y="1100.01" width="20" height="60" as="geometry" />
        </mxCell>
        <mxCell id="-9pS1q8vQVi0JjwYOpcI-34" value="gate-01&lt;br&gt;.76.186" style="rounded=1;arcSize=10;whiteSpace=wrap;html=1;align=center;fillColor=#d5e8d4;strokeColor=#82b366;" parent="1" vertex="1">
          <mxGeometry x="610" y="529.51" width="100" height="40" as="geometry" />
        </mxCell>
        <mxCell id="-9pS1q8vQVi0JjwYOpcI-35" value="gate-02&lt;br&gt;.76.35" style="rounded=1;arcSize=10;whiteSpace=wrap;html=1;align=center;fillColor=#d5e8d4;strokeColor=#82b366;strokeWidth=1;" parent="1" vertex="1">
          <mxGeometry x="610" y="439.5" width="100" height="40" as="geometry" />
        </mxCell>
        <mxCell id="-9pS1q8vQVi0JjwYOpcI-36" value="" style="shape=curlyBracket;whiteSpace=wrap;html=1;rounded=1;rotation=-180;strokeColor=#000000;fontColor=default;" parent="1" vertex="1">
          <mxGeometry x="720" y="429.75" width="20" height="149.75" as="geometry" />
        </mxCell>
        <mxCell id="-9pS1q8vQVi0JjwYOpcI-37" value="&lt;font style=&quot;font-size: 12px;&quot;&gt;ltc.bcit.ca&lt;br&gt;*.ltc.bcit.ca&lt;/font&gt;" style="text;html=1;strokeColor=none;fillColor=none;align=center;verticalAlign=middle;whiteSpace=wrap;rounded=0;dashed=1;fontSize=12;fontStyle=1;fontColor=#0066CC;" parent="1" vertex="1">
          <mxGeometry x="480" y="510" width="120" height="40" as="geometry" />
        </mxCell>
        <mxCell id="-9pS1q8vQVi0JjwYOpcI-40" value="research.ltc.bcit.ca&lt;div&gt;142.232.110.206&lt;br style=&quot;&quot;&gt;(VIP)&lt;br&gt;&lt;/div&gt;" style="text;html=1;strokeColor=none;fillColor=none;align=center;verticalAlign=middle;whiteSpace=wrap;rounded=0;fontColor=#0066CC;fontStyle=1;" parent="1" vertex="1">
          <mxGeometry x="705" y="1170" width="120" height="50" as="geometry" />
        </mxCell>
        <mxCell id="-9pS1q8vQVi0JjwYOpcI-42" style="rounded=0;orthogonalLoop=1;jettySize=auto;html=1;exitX=1;exitY=0.5;exitDx=0;exitDy=0;entryX=0;entryY=0.5;entryDx=0;entryDy=0;strokeColor=#000000;fontColor=default;" parent="1" source="-9pS1q8vQVi0JjwYOpcI-3" target="p-O_WyoKoHkovA0qc6Dd-2" edge="1">
          <mxGeometry relative="1" as="geometry">
            <mxPoint x="462" y="194.8800000000001" as="targetPoint" />
            <mxPoint x="299.99999999999363" y="600.1249999999998" as="sourcePoint" />
          </mxGeometry>
        </mxCell>
        <mxCell id="-9pS1q8vQVi0JjwYOpcI-54" value="&lt;b&gt;prod-01&lt;/b&gt;" style="shape=ext;margin=3;double=0;whiteSpace=wrap;html=1;align=right;fillColor=none;rounded=1;spacingRight=5;arcSize=6;verticalAlign=top;strokeColor=#000000;fontColor=default;" parent="1" vertex="1">
          <mxGeometry x="1000" y="210" width="400" height="110" as="geometry" />
        </mxCell>
        <mxCell id="-9pS1q8vQVi0JjwYOpcI-55" value="prod-manager-03&lt;br style=&quot;border-color: var(--border-color);&quot;&gt;.110.60" style="whiteSpace=wrap;html=1;align=center;rounded=1;strokeColor=#6c8ebf;fillColor=#dae8fc;perimeterSpacing=1;arcSize=10;" parent="1" vertex="1">
          <mxGeometry x="1230" y="220" width="100" height="40" as="geometry" />
        </mxCell>
        <mxCell id="-9pS1q8vQVi0JjwYOpcI-56" value="prod-manager-02&lt;br&gt;.76.205" style="whiteSpace=wrap;html=1;align=center;rounded=1;strokeColor=#6c8ebf;fillColor=#dae8fc;arcSize=10;" parent="1" vertex="1">
          <mxGeometry x="1120" y="220" width="100" height="40" as="geometry" />
        </mxCell>
        <mxCell id="-9pS1q8vQVi0JjwYOpcI-57" value="prod-worker-01&lt;br&gt;.110.64" style="rounded=1;arcSize=10;whiteSpace=wrap;html=1;align=center;fillColor=#dae8fc;strokeColor=#6c8ebf;strokeWidth=1;verticalAlign=middle;fontFamily=Helvetica;fontSize=12;fontColor=default;" parent="1" vertex="1">
          <mxGeometry x="1010" y="270" width="100" height="40" as="geometry" />
        </mxCell>
        <mxCell id="-9pS1q8vQVi0JjwYOpcI-58" value="prod-worker-02&lt;br&gt;.110.65" style="rounded=1;arcSize=10;whiteSpace=wrap;html=1;align=center;fillColor=#dae8fc;strokeColor=#6c8ebf;strokeWidth=1;verticalAlign=middle;fontFamily=Helvetica;fontSize=12;fontColor=default;" parent="1" vertex="1">
          <mxGeometry x="1120" y="270" width="100" height="40" as="geometry" />
        </mxCell>
        <mxCell id="-9pS1q8vQVi0JjwYOpcI-59" value="prod-worker-03&lt;br&gt;.110.58" style="rounded=1;arcSize=10;whiteSpace=wrap;html=1;align=center;fillColor=#dae8fc;strokeColor=#6c8ebf;strokeWidth=1;verticalAlign=middle;fontFamily=Helvetica;fontSize=12;fontColor=default;" parent="1" vertex="1">
          <mxGeometry x="1230" y="270" width="100" height="40" as="geometry" />
        </mxCell>
        <mxCell id="-9pS1q8vQVi0JjwYOpcI-60" value="prod-manager-01&lt;br style=&quot;border-color: var(--border-color);&quot;&gt;.76.38" style="whiteSpace=wrap;html=1;align=center;rounded=1;strokeColor=#6c8ebf;fillColor=#dae8fc;perimeterSpacing=1;arcSize=10;" parent="1" vertex="1">
          <mxGeometry x="1010" y="220" width="100" height="40" as="geometry" />
        </mxCell>
        <mxCell id="-9pS1q8vQVi0JjwYOpcI-61" value="&lt;i style=&quot;border-color: var(--border-color); font-size: 12px; text-align: right;&quot;&gt;&quot;review&quot;&lt;/i&gt;" style="text;html=1;strokeColor=none;fillColor=none;align=center;verticalAlign=middle;whiteSpace=wrap;rounded=0;fontSize=10;fontColor=#B3B3B3;" parent="1" vertex="1">
          <mxGeometry x="905" y="530" width="110" height="20" as="geometry" />
        </mxCell>
        <mxCell id="-9pS1q8vQVi0JjwYOpcI-62" value="&lt;b&gt;prod-02&lt;/b&gt;" style="shape=ext;margin=3;double=0;whiteSpace=wrap;html=1;align=right;fillColor=none;rounded=1;spacingRight=5;arcSize=6;verticalAlign=top;strokeColor=#000000;fontColor=default;" parent="1" vertex="1">
          <mxGeometry x="1000" y="340" width="400" height="110" as="geometry" />
        </mxCell>
        <mxCell id="-9pS1q8vQVi0JjwYOpcI-63" value="prod-manager-05&lt;br&gt;.76.248" style="rounded=1;arcSize=10;whiteSpace=wrap;html=1;align=center;fillColor=#d5e8d4;strokeColor=#FF8000;strokeWidth=1;fontColor=default;" parent="1" vertex="1">
          <mxGeometry x="1010" y="350" width="100" height="40" as="geometry" />
        </mxCell>
        <mxCell id="-9pS1q8vQVi0JjwYOpcI-64" value="prod-manager-06&lt;br&gt;.76.69" style="rounded=1;arcSize=10;whiteSpace=wrap;html=1;align=center;fillColor=#d5e8d4;strokeColor=#FF8000;strokeWidth=1;fontColor=default;" parent="1" vertex="1">
          <mxGeometry x="1120" y="350" width="100" height="40" as="geometry" />
        </mxCell>
        <mxCell id="-9pS1q8vQVi0JjwYOpcI-65" value="prod-manager-07&lt;br&gt;.76.40" style="rounded=1;arcSize=10;whiteSpace=wrap;html=1;align=center;fillColor=#d5e8d4;strokeColor=#FF8000;strokeWidth=1;fontColor=default;" parent="1" vertex="1">
          <mxGeometry x="1230" y="350" width="100" height="40" as="geometry" />
        </mxCell>
        <mxCell id="-9pS1q8vQVi0JjwYOpcI-66" value="prod-worker-05&lt;br&gt;.76.244" style="rounded=1;arcSize=10;whiteSpace=wrap;html=1;align=center;fillColor=#d5e8d4;strokeColor=#82b366;strokeWidth=3;" parent="1" vertex="1">
          <mxGeometry x="1010" y="400" width="100" height="40" as="geometry" />
        </mxCell>
        <mxCell id="-9pS1q8vQVi0JjwYOpcI-67" value="prod-worker-07&lt;br&gt;.110.56" style="rounded=1;arcSize=10;whiteSpace=wrap;html=1;align=center;fillColor=#d5e8d4;strokeColor=#82b366;strokeWidth=3;" parent="1" vertex="1">
          <mxGeometry x="1230" y="400" width="100" height="40" as="geometry" />
        </mxCell>
        <mxCell id="-9pS1q8vQVi0JjwYOpcI-68" value="prod-worker-06&lt;br&gt;.76.189" style="rounded=1;arcSize=10;whiteSpace=wrap;html=1;align=center;fillColor=#d5e8d4;strokeColor=#82b366;strokeWidth=3;" parent="1" vertex="1">
          <mxGeometry x="1120" y="400" width="100" height="40" as="geometry" />
        </mxCell>
        <mxCell id="-9pS1q8vQVi0JjwYOpcI-69" value="&lt;i style=&quot;border-color: var(--border-color); font-size: 12px; text-align: right;&quot;&gt;&quot;web&quot;&lt;/i&gt;" style="text;html=1;strokeColor=none;fillColor=none;align=center;verticalAlign=middle;whiteSpace=wrap;rounded=0;fontSize=10;fontColor=#B3B3B3;" parent="1" vertex="1">
          <mxGeometry x="905" y="660" width="110" height="20" as="geometry" />
        </mxCell>
        <mxCell id="-9pS1q8vQVi0JjwYOpcI-70" value="&lt;i style=&quot;border-color: var(--border-color); font-size: 12px; text-align: right;&quot;&gt;&quot;latest&quot;&lt;/i&gt;" style="text;html=1;strokeColor=none;fillColor=none;align=center;verticalAlign=middle;whiteSpace=wrap;rounded=0;fontSize=10;fontColor=#B3B3B3;" parent="1" vertex="1">
          <mxGeometry x="905" y="270" width="110" height="20" as="geometry" />
        </mxCell>
        <mxCell id="-9pS1q8vQVi0JjwYOpcI-71" value="&lt;b&gt;prod-03&lt;/b&gt;" style="shape=ext;margin=3;double=0;whiteSpace=wrap;html=1;align=right;fillColor=none;rounded=1;spacingRight=5;arcSize=6;verticalAlign=top;strokeColor=#000000;fontColor=default;" parent="1" vertex="1">
          <mxGeometry x="1000" y="470" width="400" height="110" as="geometry" />
        </mxCell>
        <mxCell id="-9pS1q8vQVi0JjwYOpcI-72" value="prod-worker-10&lt;br&gt;.76.198" style="rounded=1;arcSize=10;whiteSpace=wrap;html=1;align=center;fillColor=#dae8fc;strokeColor=#6c8ebf;strokeWidth=1;" parent="1" vertex="1">
          <mxGeometry x="1120" y="530" width="100" height="40" as="geometry" />
        </mxCell>
        <mxCell id="-9pS1q8vQVi0JjwYOpcI-73" value="prod-worker-11&lt;br&gt;.76.109" style="rounded=1;arcSize=10;whiteSpace=wrap;html=1;align=center;fillColor=#dae8fc;strokeColor=#6c8ebf;strokeWidth=1;" parent="1" vertex="1">
          <mxGeometry x="1230" y="530" width="100" height="40" as="geometry" />
        </mxCell>
        <mxCell id="-9pS1q8vQVi0JjwYOpcI-74" value="prod-manager-10&lt;br&gt;.76.46" style="rounded=1;arcSize=10;whiteSpace=wrap;html=1;align=center;fillColor=#dae8fc;strokeColor=#6c8ebf;strokeWidth=1;" parent="1" vertex="1">
          <mxGeometry x="1120" y="480" width="100" height="40" as="geometry" />
        </mxCell>
        <mxCell id="-9pS1q8vQVi0JjwYOpcI-75" value="prod-manager-11&lt;br&gt;.76.199" style="rounded=1;arcSize=10;whiteSpace=wrap;html=1;align=center;fillColor=#dae8fc;strokeColor=#6c8ebf;strokeWidth=1;" parent="1" vertex="1">
          <mxGeometry x="1230" y="480" width="100" height="40" as="geometry" />
        </mxCell>
        <mxCell id="-9pS1q8vQVi0JjwYOpcI-76" value="prod-manager-09&lt;br&gt;.76.37" style="rounded=1;arcSize=10;whiteSpace=wrap;html=1;align=center;fillColor=#dae8fc;strokeColor=#6c8ebf;strokeWidth=1;" parent="1" vertex="1">
          <mxGeometry x="1010" y="480" width="100" height="40" as="geometry" />
        </mxCell>
        <mxCell id="-9pS1q8vQVi0JjwYOpcI-77" value="prod-worker-09&lt;br&gt;.110.59" style="rounded=1;arcSize=10;whiteSpace=wrap;html=1;align=center;fillColor=#dae8fc;strokeColor=#6c8ebf;strokeWidth=1;" parent="1" vertex="1">
          <mxGeometry x="1010" y="530" width="100" height="40" as="geometry" />
        </mxCell>
        <mxCell id="-9pS1q8vQVi0JjwYOpcI-78" value="&lt;b&gt;&lt;font&gt;prod-04&lt;/font&gt;&lt;/b&gt;" style="shape=ext;margin=3;double=0;whiteSpace=wrap;html=1;align=right;rounded=1;spacingRight=5;verticalAlign=top;movable=1;resizable=1;rotatable=1;deletable=1;editable=1;connectable=1;arcSize=6;fillColor=none;fontColor=default;strokeColor=#000000;" parent="1" vertex="1">
          <mxGeometry x="1000" y="600" width="400" height="110" as="geometry" />
        </mxCell>
        <mxCell id="-9pS1q8vQVi0JjwYOpcI-79" value="prod-manager-15&lt;br&gt;.76.253" style="whiteSpace=wrap;html=1;align=center;rounded=1;strokeColor=#6c8ebf;fillColor=#dae8fc;arcSize=10;" parent="1" vertex="1">
          <mxGeometry x="1230" y="609.6099999999999" width="100" height="40" as="geometry" />
        </mxCell>
        <mxCell id="-9pS1q8vQVi0JjwYOpcI-80" value="prod-worker-15&lt;br&gt;.110.62" style="whiteSpace=wrap;html=1;align=center;rounded=1;strokeColor=#82b366;fillColor=#d5e8d4;arcSize=10;strokeWidth=3;" parent="1" vertex="1">
          <mxGeometry x="1230" y="659.4699999999999" width="100" height="40" as="geometry" />
        </mxCell>
        <mxCell id="-9pS1q8vQVi0JjwYOpcI-81" value="prod-worker-14&lt;br&gt;.110.61" style="whiteSpace=wrap;html=1;align=center;rounded=1;strokeColor=#82b366;fillColor=#d5e8d4;arcSize=10;strokeWidth=3;" parent="1" vertex="1">
          <mxGeometry x="1120" y="659.4699999999998" width="100" height="40" as="geometry" />
        </mxCell>
        <mxCell id="-9pS1q8vQVi0JjwYOpcI-82" value="prod-worker-13&lt;br&gt;.76.254" style="whiteSpace=wrap;html=1;align=center;rounded=1;strokeColor=#82b366;fillColor=#d5e8d4;arcSize=10;strokeWidth=3;" parent="1" vertex="1">
          <mxGeometry x="1010" y="659.47" width="100" height="40" as="geometry" />
        </mxCell>
        <mxCell id="-9pS1q8vQVi0JjwYOpcI-83" value="prod-manager-13&lt;br&gt;.76.249" style="whiteSpace=wrap;html=1;align=center;rounded=1;strokeColor=#6c8ebf;fillColor=#dae8fc;arcSize=10;" parent="1" vertex="1">
          <mxGeometry x="1010" y="609.61" width="100" height="40" as="geometry" />
        </mxCell>
        <mxCell id="-9pS1q8vQVi0JjwYOpcI-84" value="prod-manager-14&lt;br&gt;.110.55" style="whiteSpace=wrap;html=1;align=center;rounded=1;strokeColor=#6c8ebf;fillColor=#dae8fc;arcSize=10;" parent="1" vertex="1">
          <mxGeometry x="1120" y="609.61" width="100" height="40" as="geometry" />
        </mxCell>
        <mxCell id="-9pS1q8vQVi0JjwYOpcI-85" value="&lt;i style=&quot;border-color: var(--border-color); font-size: 12px; text-align: right;&quot;&gt;default&lt;/i&gt;" style="text;html=1;strokeColor=none;fillColor=none;align=center;verticalAlign=middle;whiteSpace=wrap;rounded=0;fontSize=10;fontColor=default;" parent="1" vertex="1">
          <mxGeometry x="905" y="400" width="110" height="20" as="geometry" />
        </mxCell>
        <mxCell id="-9pS1q8vQVi0JjwYOpcI-86" value="&lt;i style=&quot;border-color: var(--border-color); font-size: 12px; text-align: right;&quot;&gt;fusion.ltc.bcit.ca&lt;/i&gt;" style="text;html=1;strokeColor=none;fillColor=none;align=center;verticalAlign=middle;whiteSpace=wrap;rounded=0;fontSize=10;fontColor=default;" parent="1" vertex="1">
          <mxGeometry x="1005" y="780.14" width="110" height="20" as="geometry" />
        </mxCell>
        <mxCell id="-9pS1q8vQVi0JjwYOpcI-87" value="&lt;b style=&quot;font-size: 10px;&quot;&gt;GitLab Runner:&lt;br&gt;&lt;/b&gt;- prod-01&lt;br&gt;- latest&lt;br&gt;- utility" style="text;html=1;strokeColor=none;fillColor=none;align=left;verticalAlign=top;whiteSpace=wrap;rounded=0;fontSize=10;fontColor=default;" parent="1" vertex="1">
          <mxGeometry x="1429" y="220" width="90" height="60" as="geometry" />
        </mxCell>
        <mxCell id="-9pS1q8vQVi0JjwYOpcI-88" value="&lt;b style=&quot;font-size: 10px;&quot;&gt;GitLab Kubernetes Agents:&lt;br style=&quot;font-size: 10px;&quot;&gt;&lt;/b&gt;- prod-01-deployments&lt;br style=&quot;font-size: 10px;&quot;&gt;- prod-01-ltc-infrastructure&lt;br style=&quot;font-size: 10px;&quot;&gt;- prod-01-web-apps&lt;br style=&quot;font-size: 10px;&quot;&gt;- prod-01-utilities" style="text;html=1;strokeColor=none;fillColor=none;align=left;verticalAlign=top;whiteSpace=wrap;rounded=0;fontSize=10;fontColor=default;" parent="1" vertex="1">
          <mxGeometry x="1520" y="220" width="140" height="70" as="geometry" />
        </mxCell>
        <mxCell id="-9pS1q8vQVi0JjwYOpcI-89" value="&lt;b style=&quot;font-size: 10px;&quot;&gt;GitLab Kubernetes Agents:&lt;br style=&quot;font-size: 10px;&quot;&gt;&lt;/b&gt;- prod-02-deployments&lt;br style=&quot;font-size: 10px;&quot;&gt;- prod-02-ltc-infrastructure&lt;br style=&quot;font-size: 10px;&quot;&gt;- prod-02-web-apps&lt;br style=&quot;font-size: 10px;&quot;&gt;- prod-02-utilities" style="text;html=1;strokeColor=none;fillColor=none;align=left;verticalAlign=top;whiteSpace=wrap;rounded=0;fontSize=10;fontColor=default;" parent="1" vertex="1">
          <mxGeometry x="1520" y="349.75" width="140" height="70" as="geometry" />
        </mxCell>
        <mxCell id="-9pS1q8vQVi0JjwYOpcI-90" value="&lt;b style=&quot;font-size: 10px;&quot;&gt;GitLab Kubernetes Agents:&lt;br style=&quot;font-size: 10px;&quot;&gt;&lt;/b&gt;- prod-03-deployments&lt;br style=&quot;font-size: 10px;&quot;&gt;- prod-03-ltc-infrastructure&lt;br style=&quot;font-size: 10px;&quot;&gt;- prod-03-web-apps&lt;br style=&quot;font-size: 10px;&quot;&gt;- prod-03-utilities" style="text;html=1;strokeColor=none;fillColor=none;align=left;verticalAlign=top;whiteSpace=wrap;rounded=0;fontSize=10;fontColor=default;" parent="1" vertex="1">
          <mxGeometry x="1520" y="479.99" width="140" height="70.01" as="geometry" />
        </mxCell>
        <mxCell id="-9pS1q8vQVi0JjwYOpcI-91" value="&lt;b style=&quot;font-size: 10px;&quot;&gt;GitLab Kubernetes Agents:&lt;br style=&quot;font-size: 10px;&quot;&gt;&lt;/b&gt;- prod-04-deployments&lt;br style=&quot;font-size: 10px;&quot;&gt;- prod-04-ltc-infrastructure&lt;br style=&quot;font-size: 10px;&quot;&gt;- prod-04-web-apps&lt;br style=&quot;font-size: 10px;&quot;&gt;- prod-04-utilities" style="text;html=1;strokeColor=none;fillColor=none;align=left;verticalAlign=top;whiteSpace=wrap;rounded=0;fontSize=10;fontColor=default;" parent="1" vertex="1">
          <mxGeometry x="1520" y="610" width="140" height="70" as="geometry" />
        </mxCell>
        <mxCell id="-9pS1q8vQVi0JjwYOpcI-92" value="&lt;b style=&quot;font-size: 10px;&quot;&gt;GitLab Runner:&lt;br&gt;&lt;/b&gt;- prod-02&lt;br&gt;- stable&lt;br&gt;- utility" style="text;html=1;strokeColor=none;fillColor=none;align=left;verticalAlign=top;whiteSpace=wrap;rounded=0;fontSize=10;fontColor=default;" parent="1" vertex="1">
          <mxGeometry x="1429" y="349.75" width="90" height="59.75" as="geometry" />
        </mxCell>
        <mxCell id="-9pS1q8vQVi0JjwYOpcI-93" value="&lt;b style=&quot;font-size: 10px;&quot;&gt;GitLab Runner:&lt;br&gt;&lt;/b&gt;- prod-03&lt;br&gt;- review&lt;br&gt;- utility" style="text;html=1;strokeColor=none;fillColor=none;align=left;verticalAlign=top;whiteSpace=wrap;rounded=0;fontSize=10;fontColor=default;" parent="1" vertex="1">
          <mxGeometry x="1429" y="479.99" width="90" height="60.01" as="geometry" />
        </mxCell>
        <mxCell id="-9pS1q8vQVi0JjwYOpcI-94" value="&lt;b style=&quot;font-size: 10px;&quot;&gt;GitLab Runner:&lt;br&gt;&lt;/b&gt;- prod-04&lt;br&gt;- web&lt;br&gt;- utility" style="text;html=1;strokeColor=none;fillColor=none;align=left;verticalAlign=top;whiteSpace=wrap;rounded=0;fontSize=10;fontColor=default;" parent="1" vertex="1">
          <mxGeometry x="1429" y="610" width="90" height="60" as="geometry" />
        </mxCell>
        <mxCell id="-9pS1q8vQVi0JjwYOpcI-95" value="&lt;span style=&quot;font-size: 10px;&quot;&gt;&lt;b&gt;Vault Auth:&lt;/b&gt;&lt;br&gt;Backend:&amp;nbsp;&lt;/span&gt;kubernetes-latest&lt;br style=&quot;font-size: 10px;&quot;&gt;&lt;span style=&quot;border-color: var(--border-color);&quot;&gt;Backend Config:&amp;nbsp;&lt;/span&gt;kubernetes-config-prod-01" style="text;html=1;strokeColor=none;fillColor=none;align=left;verticalAlign=top;whiteSpace=wrap;rounded=0;fontSize=10;fontColor=default;" parent="1" vertex="1">
          <mxGeometry x="1680" y="220" width="220" height="50" as="geometry" />
        </mxCell>
        <mxCell id="-9pS1q8vQVi0JjwYOpcI-96" value="&lt;span style=&quot;font-size: 10px;&quot;&gt;&lt;b&gt;Vault Auth:&lt;/b&gt;&lt;br&gt;Backend:&amp;nbsp;&lt;/span&gt;kubernetes-stable&lt;br style=&quot;font-size: 10px;&quot;&gt;&lt;span style=&quot;border-color: var(--border-color);&quot;&gt;Backend Config:&amp;nbsp;&lt;/span&gt;kubernetes-config-prod-02" style="text;html=1;strokeColor=none;fillColor=none;align=left;verticalAlign=top;whiteSpace=wrap;rounded=0;fontSize=10;fontColor=default;" parent="1" vertex="1">
          <mxGeometry x="1680" y="349.75" width="220" height="50" as="geometry" />
        </mxCell>
        <mxCell id="-9pS1q8vQVi0JjwYOpcI-97" value="&lt;span style=&quot;font-size: 10px;&quot;&gt;&lt;b&gt;Vault Auth:&lt;/b&gt;&lt;br&gt;Backend:&amp;nbsp;&lt;/span&gt;kubernetes-review&lt;br style=&quot;font-size: 10px;&quot;&gt;&lt;span style=&quot;border-color: var(--border-color);&quot;&gt;Backend Config:&amp;nbsp;&lt;/span&gt;kubernetes-config-prod-03" style="text;html=1;strokeColor=none;fillColor=none;align=left;verticalAlign=top;whiteSpace=wrap;rounded=0;fontSize=10;fontColor=default;" parent="1" vertex="1">
          <mxGeometry x="1680" y="479.99" width="220" height="50" as="geometry" />
        </mxCell>
        <mxCell id="-9pS1q8vQVi0JjwYOpcI-98" value="&lt;span style=&quot;font-size: 10px;&quot;&gt;&lt;b&gt;Vault Auth:&lt;/b&gt;&lt;br&gt;Backend:&amp;nbsp;&lt;/span&gt;kubernetes-web&lt;br style=&quot;font-size: 10px;&quot;&gt;&lt;span style=&quot;border-color: var(--border-color);&quot;&gt;Backend Config:&amp;nbsp;&lt;/span&gt;kubernetes-config-prod-04" style="text;html=1;strokeColor=none;fillColor=none;align=left;verticalAlign=top;whiteSpace=wrap;rounded=0;fontSize=10;fontColor=default;" parent="1" vertex="1">
          <mxGeometry x="1680" y="609" width="220" height="50" as="geometry" />
        </mxCell>
        <mxCell id="-9pS1q8vQVi0JjwYOpcI-99" value="" style="shape=curlyBracket;whiteSpace=wrap;html=1;rounded=1;strokeColor=#000000;fontColor=default;" parent="1" vertex="1">
          <mxGeometry x="460" y="429.5" width="20" height="150.25" as="geometry" />
        </mxCell>
        <mxCell id="-9pS1q8vQVi0JjwYOpcI-24" value="&lt;font&gt;prod-manager3&lt;br&gt;.76.153&lt;/font&gt;" style="rounded=1;arcSize=10;whiteSpace=wrap;html=1;align=center;fillColor=#ffe6cc;strokeColor=#d79b00;" parent="1" vertex="1">
          <mxGeometry x="1120" y="860" width="100" height="40" as="geometry" />
        </mxCell>
        <mxCell id="-9pS1q8vQVi0JjwYOpcI-25" value="&lt;font&gt;prod-manager2&lt;br&gt;.110.50&lt;/font&gt;" style="rounded=1;arcSize=10;whiteSpace=wrap;html=1;align=center;fillColor=#ffe6cc;strokeColor=#d79b00;" parent="1" vertex="1">
          <mxGeometry x="1010" y="860" width="100" height="40" as="geometry" />
        </mxCell>
        <mxCell id="-9pS1q8vQVi0JjwYOpcI-26" value="&lt;font&gt;prod-worker2&lt;br&gt;.76.62&lt;/font&gt;" style="rounded=1;arcSize=10;whiteSpace=wrap;html=1;align=center;fillColor=#ffe6cc;strokeColor=#d79b00;" parent="1" vertex="1">
          <mxGeometry x="1010" y="910" width="100" height="40" as="geometry" />
        </mxCell>
        <mxCell id="-9pS1q8vQVi0JjwYOpcI-28" value="admin-03&lt;i&gt;&lt;br&gt;&lt;/i&gt;.110.53" style="rounded=1;arcSize=10;whiteSpace=wrap;html=1;align=center;fillColor=#dae8fc;strokeColor=#6c8ebf;" parent="1" vertex="1">
          <mxGeometry x="1250" y="730.0000000000002" width="100" height="40" as="geometry" />
        </mxCell>
        <mxCell id="-9pS1q8vQVi0JjwYOpcI-30" value="research-01&lt;br&gt;.110.57" style="rounded=1;arcSize=10;whiteSpace=wrap;html=1;align=center;fillColor=#d5e8d4;strokeColor=#82b366;" parent="1" vertex="1">
          <mxGeometry x="925" y="1120.0099999999998" width="100" height="40" as="geometry" />
        </mxCell>
        <mxCell id="-9pS1q8vQVi0JjwYOpcI-101" value="&lt;font&gt;prod-manager4&lt;br&gt;.76.47&lt;/font&gt;" style="rounded=1;arcSize=10;whiteSpace=wrap;html=1;align=center;fillColor=#ffe6cc;strokeColor=#d79b00;" parent="1" vertex="1">
          <mxGeometry x="1230" y="860" width="100" height="40" as="geometry" />
        </mxCell>
        <mxCell id="-9pS1q8vQVi0JjwYOpcI-102" value="&lt;font&gt;prod-worker3&lt;br&gt;.110.52&lt;/font&gt;" style="rounded=1;arcSize=10;whiteSpace=wrap;html=1;align=center;fillColor=#ffe6cc;strokeColor=#d79b00;" parent="1" vertex="1">
          <mxGeometry x="1120" y="910" width="100" height="40" as="geometry" />
        </mxCell>
        <mxCell id="-9pS1q8vQVi0JjwYOpcI-104" style="rounded=0;orthogonalLoop=1;jettySize=auto;html=1;exitX=0.1;exitY=0.5;exitDx=0;exitDy=0;exitPerimeter=0;strokeColor=#000000;fontColor=default;entryX=0;entryY=0.5;entryDx=0;entryDy=0;" parent="1" source="-9pS1q8vQVi0JjwYOpcI-36" target="-9pS1q8vQVi0JjwYOpcI-103" edge="1">
          <mxGeometry relative="1" as="geometry">
            <mxPoint x="1020" y="759.29" as="targetPoint" />
            <mxPoint x="748" y="514.625" as="sourcePoint" />
            <Array as="points">
              <mxPoint x="800" y="540" />
              <mxPoint x="910" y="880" />
            </Array>
          </mxGeometry>
        </mxCell>
        <mxCell id="-9pS1q8vQVi0JjwYOpcI-105" value="&lt;i style=&quot;border-color: var(--border-color); font-size: 12px; text-align: right;&quot;&gt;corgi.ltc.bcit.ca&lt;/i&gt;" style="text;html=1;strokeColor=none;fillColor=none;align=center;verticalAlign=middle;whiteSpace=wrap;rounded=0;fontSize=10;fontColor=default;" parent="1" vertex="1">
          <mxGeometry x="890" y="905" width="110" height="20" as="geometry" />
        </mxCell>
        <mxCell id="-9pS1q8vQVi0JjwYOpcI-107" value="&lt;i style=&quot;border-color: var(--border-color); font-size: 12px; text-align: right;&quot;&gt;vault.ltc.bcit.ca&lt;/i&gt;" style="text;html=1;strokeColor=none;fillColor=none;align=center;verticalAlign=middle;whiteSpace=wrap;rounded=0;fontSize=10;fontColor=default;" parent="1" vertex="1">
          <mxGeometry x="555" y="275" width="100" height="20" as="geometry" />
        </mxCell>
        <mxCell id="-9pS1q8vQVi0JjwYOpcI-108" value="&lt;i style=&quot;border-color: var(--border-color); font-size: 12px; text-align: right;&quot;&gt;rancher2.ltc.bcit.ca&lt;/i&gt;" style="text;html=1;strokeColor=none;fillColor=none;align=center;verticalAlign=middle;whiteSpace=wrap;rounded=0;fontSize=10;fontColor=default;" parent="1" vertex="1">
          <mxGeometry x="1380" y="780.14" width="100" height="20" as="geometry" />
        </mxCell>
        <mxCell id="-9pS1q8vQVi0JjwYOpcI-109" value="&lt;i style=&quot;border-color: var(--border-color); font-size: 12px; text-align: right;&quot;&gt;ltc.bcit.ca&lt;/i&gt;" style="text;html=1;strokeColor=none;fillColor=none;align=center;verticalAlign=middle;whiteSpace=wrap;rounded=0;fontSize=10;fontColor=default;" parent="1" vertex="1">
          <mxGeometry x="1010" y="1030" width="100" height="20" as="geometry" />
        </mxCell>
        <mxCell id="-9pS1q8vQVi0JjwYOpcI-110" value="&lt;i style=&quot;border-color: var(--border-color); font-size: 12px; text-align: right;&quot;&gt;rancher.ltc.bcit.ca&lt;/i&gt;" style="text;html=1;strokeColor=none;fillColor=none;align=center;verticalAlign=middle;whiteSpace=wrap;rounded=0;fontSize=10;fontColor=default;" parent="1" vertex="1">
          <mxGeometry x="1230" y="1030" width="100" height="20" as="geometry" />
        </mxCell>
        <mxCell id="-9pS1q8vQVi0JjwYOpcI-112" value="&lt;i style=&quot;border-color: var(--border-color); font-size: 12px; text-align: right;&quot;&gt;registry.ltc.bcit.ca&lt;/i&gt;" style="text;html=1;strokeColor=none;fillColor=none;align=center;verticalAlign=middle;whiteSpace=wrap;rounded=0;fontSize=10;fontColor=default;" parent="1" vertex="1">
          <mxGeometry x="1120" y="1070" width="100" height="20" as="geometry" />
        </mxCell>
        <mxCell id="-9pS1q8vQVi0JjwYOpcI-114" value="&lt;i style=&quot;border-color: var(--border-color); font-size: 12px; text-align: right;&quot;&gt;mattermost.ltc.bcit.ca&lt;/i&gt;" style="text;html=1;strokeColor=none;fillColor=none;align=center;verticalAlign=middle;whiteSpace=wrap;rounded=0;fontSize=10;fontColor=default;" parent="1" vertex="1">
          <mxGeometry x="1120" y="1050" width="100" height="20" as="geometry" />
        </mxCell>
        <mxCell id="-9pS1q8vQVi0JjwYOpcI-46" value="&lt;font style=&quot;font-size: 12px;&quot;&gt;&lt;b style=&quot;font-size: 12px;&quot;&gt;ITS Internal DNS Records&lt;/b&gt;&lt;/font&gt;" style="text;html=1;strokeColor=none;fillColor=none;align=center;verticalAlign=middle;whiteSpace=wrap;rounded=0;dashed=1;fontSize=12;fontColor=#0066CC;" parent="1" vertex="1">
          <mxGeometry x="240" y="820" width="80" height="40" as="geometry" />
        </mxCell>
        <mxCell id="-9pS1q8vQVi0JjwYOpcI-47" value="research/&lt;br&gt;inactive" style="whiteSpace=wrap;html=1;align=center;rounded=1;fillColor=#f5f5f5;fontColor=#333333;strokeColor=#666666;" parent="1" vertex="1">
          <mxGeometry x="240" y="770.0000000000001" width="80" height="40" as="geometry" />
        </mxCell>
        <mxCell id="-9pS1q8vQVi0JjwYOpcI-48" value="cluster manager" style="whiteSpace=wrap;html=1;align=center;rounded=1;strokeColor=#FF8000;fillColor=#d5e8d4;" parent="1" vertex="1">
          <mxGeometry x="150" y="719.8600000000001" width="80" height="40" as="geometry" />
        </mxCell>
        <mxCell id="-9pS1q8vQVi0JjwYOpcI-49" value="&lt;font size=&quot;1&quot;&gt;&lt;b style=&quot;font-size: 20px&quot;&gt;Legend&lt;/b&gt;&lt;/font&gt;" style="text;html=1;strokeColor=none;fillColor=none;align=left;verticalAlign=middle;whiteSpace=wrap;rounded=0;fontColor=default;" parent="1" vertex="1">
          <mxGeometry x="140" y="680.0000000000001" width="87" height="30" as="geometry" />
        </mxCell>
        <mxCell id="-9pS1q8vQVi0JjwYOpcI-50" value="&lt;font&gt;legacy&lt;/font&gt;" style="whiteSpace=wrap;html=1;align=center;rounded=1;fillColor=#ffe6cc;strokeColor=#d79b00;" parent="1" vertex="1">
          <mxGeometry x="150" y="770.0000000000001" width="80" height="40" as="geometry" />
        </mxCell>
        <mxCell id="-9pS1q8vQVi0JjwYOpcI-51" value="regular vm" style="whiteSpace=wrap;html=1;align=center;rounded=1;fillColor=#d5e8d4;strokeColor=#82b366;" parent="1" vertex="1">
          <mxGeometry x="240" y="719.8600000000001" width="80" height="40" as="geometry" />
        </mxCell>
        <mxCell id="-9pS1q8vQVi0JjwYOpcI-53" value="large storage replica" style="whiteSpace=wrap;html=1;align=center;rounded=1;fillColor=#d5e8d4;strokeColor=#82b366;strokeWidth=3;" parent="1" vertex="1">
          <mxGeometry x="150" y="820.0000000000001" width="80" height="40" as="geometry" />
        </mxCell>
        <mxCell id="p-O_WyoKoHkovA0qc6Dd-2" value="vault.ltc.bcit.ca -&amp;gt; vault-02.ltc.bcit.ca&lt;div&gt;-&amp;gt; 142.232.110.63&lt;/div&gt;" style="text;html=1;strokeColor=none;fillColor=none;align=center;verticalAlign=middle;whiteSpace=wrap;rounded=0;fontColor=#0066CC;fontStyle=1;" parent="1" vertex="1">
          <mxGeometry x="495" y="230" width="220" height="40" as="geometry" />
        </mxCell>
        <mxCell id="U-P-5C5lZhbqRWKUUBOx-4" value="&lt;span style=&quot;border-color: var(--border-color); font-size: 12px; text-align: right;&quot;&gt;issues.ltc.bcit.ca&lt;/span&gt;" style="text;html=1;strokeColor=none;fillColor=none;align=center;verticalAlign=middle;whiteSpace=wrap;rounded=0;fontSize=10;fontColor=default;fontStyle=2;fontFamily=Helvetica;" parent="1" vertex="1">
          <mxGeometry x="1120" y="1030" width="100" height="20" as="geometry" />
        </mxCell>
        <mxCell id="Yfq2I0dpu4bLp-_bL3uS-1" value="&lt;font style=&quot;font-size: 12px;&quot;&gt;&lt;b style=&quot;font-size: 12px;&quot;&gt;ITS External DNS Records&lt;/b&gt;&lt;/font&gt;" style="text;html=1;strokeColor=none;fillColor=none;align=center;verticalAlign=middle;whiteSpace=wrap;rounded=0;dashed=1;fontSize=12;fontColor=#00994D;" parent="1" vertex="1">
          <mxGeometry x="240" y="865" width="80" height="40" as="geometry" />
        </mxCell>
        <mxCell id="Zxdvogi67uCtEpaAu3vM-1" value="&lt;i style=&quot;border-color: var(--border-color); font-size: 12px; text-align: right;&quot;&gt;rancher3.ltc.bcit.ca&lt;/i&gt;" style="text;html=1;strokeColor=none;fillColor=none;align=center;verticalAlign=middle;whiteSpace=wrap;rounded=0;fontSize=10;fontColor=default;" vertex="1" parent="1">
          <mxGeometry x="1250" y="780" width="100" height="20" as="geometry" />
        </mxCell>
        <mxCell id="Zxdvogi67uCtEpaAu3vM-2" value="" style="group" vertex="1" connectable="0" parent="1">
          <mxGeometry x="550" y="160" width="110" height="60" as="geometry" />
        </mxCell>
        <mxCell id="-9pS1q8vQVi0JjwYOpcI-29" value="vault-02&lt;div&gt;.110.63&lt;/div&gt;" style="rounded=1;arcSize=10;whiteSpace=wrap;html=1;align=center;fillColor=#dae8fc;strokeColor=#6c8ebf;" parent="Zxdvogi67uCtEpaAu3vM-2" vertex="1">
          <mxGeometry y="10" width="100" height="50" as="geometry" />
        </mxCell>
        <mxCell id="U-P-5C5lZhbqRWKUUBOx-9" value="" style="shape=image;verticalLabelPosition=bottom;labelBackgroundColor=default;verticalAlign=top;aspect=fixed;imageAspect=0;image=data:image/png,iVBORw0KGgoAAAANSUhEUgAAAGAAAABgCAIAAABt+uBvAAAQcklEQVR4nOxcaYwc13Guqu45d7miqDCOqMO0gySAjRwOFDgOlMBWAseQEeiHgUAwEESI8iNREsAI4CBGLCDJv1xGEAWhSJErMjLJJffU8r4pHqJ4iKRIipRESiIpSqSWXC6551xdFbzumd6enj5ez8xuLNqFxu50v1fvvf6mql69evXGfPjzvwhVEhFISOL+CS8OfxDXXbUcE7D4KolWd1EvYLofE6IjGo1HPtBBBxMNyd+uHjoxLVGz3DF8LaKTtLuYulGMMY2aP9Os6EL6DKCjP6rGHlpDx5GgYDKMxkG2bHd0APL2inb9+K+wZbuDIAwWB7AEAyQCt++gxRLwRYb0KrW/GFZVQ3YCDPOcoFNXhvb7plLQ1RHA5AcIESwLFnTI9/60svgBtCxdYU8sKnNAIVCF1nLQsQTSGTj/nnT3UjoFPpvjB0hEKdfdSUynrWeeQShiU3PtZ4cUQgCd8MPnpViCbFrhVVf+0KNf9LMglMuwoJP7/qvypV/GUgGQ5nXM80kWQzYHp87xU39BwkgUJ0GOEGXSMDpGP94E//p3wKaC7F4lgyBlwsoNMDmF93XadnqWxHUU/cQC2QwM7zHOXOB0Fpjna7zzS8yQycHRk7x5P3XmA9AJBUgETFNGRmn1IArfsxKEqDD6n3UwOYlGiBkJsy7Kvc5lYPM+49Q5ztyLQmRZkMnDoWO8/QB15H0vOGuHAgFSxcJgGnDrNq0eJOUQ3XNCRARWBZath5mCEh+PE1xnpX0AiXclIQL5DGzdTyfekntMiCyGTAfse513H/ZanwD3KUiCXDCVJYKxu9Tdj5Z1TwmRQVAuwrJ1UCohRb6XC5AErkIthlwWdhw0j5ySTO4eESKLIZ2HnQd4/zFlfWzxCV3y1UtQUB3DgPEJ7O7Hckmiwf5MkNjiU5iWF3vQqqCtFlELEwqTndkWRQnR7kPmoROS/uwLEVuQ7oCt++XwCezQeJ2aBIWDyAJkwMQUvjxApaIQNRsOFCXM3ss7OOaGUglltNi/INAnw4DpCVneAyzOMjMmMGSCRnyHGfI52HvEOHC8/AePY2E6+erMjidQ2v+wUqgCkc0BGPWlFpSK6r9pgJH1t2cVlSOTlCwLcl0wMCRHTxsdWYkSnxompmb0iwimpqG7Dx9/TIhQksT8RCCVhguX5MBxcTwOtAUznYKnnsCFXWgxbNnLlz9WIIoAIRRL8EtL4YnfJiL4ZES2HxS2avEzVGryrd/Dzy/BciWBl+9MyuN3ZPl6mwm1QjKhEUUfL7PksrD/mLH3SOXJJ7AwlUCIlJKm4OgZ+f6/mJmMGigiVCpw3wL5na9YDyyicpFX9eO2/UZHh5JWk2BsAp7+tvX7XxPDxA+uyT/8iEolIkO5r0hQKsEXH618YSlKOQFALMp1XrtJTr5NnXkt8QmPKAY9sIWIuvvoG18V00BOuEYzCfJZyKSxCpCp1sNuC+kU5LOYz6hxE0G+rJ44RAi5DJoETiwCEZzPiUhJsQljo/LSRsUeasLE/zGgn7DYoG2J5NAJ2nlIUtlZI6o7RPs79F7eUYoIqyu41MeYtGtn8GYeNm6Rs+9QLhsCUAM6AQBFR04RoFTG7n6anBDTSDydIfqvxiKILK1dCTc5bSN461NZ1afkKNEMWAdQ7I6NEqIsHDllbD+ghEiS+EQsUK74L3esFfu25BaV1RP39SIYtbpmMLOwbpNceJ9ymSABFAhbrZreOg1MAXeIahH88gB983HJZ9QEpGWJ7ODJ4kWSToljRywLFnSqKRxECebCLvm5RZzPKdANgrQJ93XaM5btHyy+n8tlRMerRSlXbAulh5EIpNNw4xN5uR8yZgg6oSAAPvTIF5Lu9iFCsSwvPF95+imamYKwUJOXCGF8Cm7eZhdN5fIjLPkcpWxV/XRUpqbFNb3MsKADFy9SS4FCEW7cYjUneIbz4GLK69lBtZxcAP+2jP/5BWoIqta9XWBjCqCke6FEMF2Ax37V2vCf0pm3t4Y0hIgoAMpKpdq8YQDVt8Iijiuopq1ZH7LqvVQsLS1Tvk8Kro/Ik8/C9RFMNezqRIuPvfXc0GbEXXXoDPkMvHnW2LRXzIyuORBlwsTyXMziSoVdypZ9OSR1CxGp8XKVUY9YwMjA6gH58Bpm0vVDDbc7XvL5Qdp7ofaLrRmkb39dujpjhEh5aFnY+zp396E9iYhjg/I5eP6vYMnPY7kMP1ptnTqHjhtJCFMz8Phj8tx3yTDg/CX5j1VcsdDtomLB95+VX/8SlYpx/Wbg8geydhj9tjlOcFwyQ/GI5GOGbBZOnqeh3eU/e9qoTEYNVFllAy5fg4Gdhu0oKoAqFnR1yveesYhIgA+fwK37TceTNgjujkMqZT33XUGim2M8tMcol9F1FEtl+JOnrN8wqrcR/VIauvv52nUj2PpokBmMh8Y+unJZENcMGX/0hNzfFW+JUilY0CGOnDsAdXaAG2DK56CrE/L5KkDCatarDtGABR1q4vcCZIaukarkiM/F97hni/IMZ8VHW3YcCkqg0kDHGUEuC2feNfp3aFki5SvbIQ72hDtcJq49cSt4wx3M9Zel4YLZC8AVG+X6CM7uuCdExw2YNbx9LGG1skHwyqt044YETBA+DlQiUHd5JI4CSqvvhNBQRDHS6uwInjsv/dupI2i7Qd/NNJPyiSdDxdmAPX/R6N1e/ptnlK2NGHe5AhNTSjvc1TzBrJjMFFWpIywGwcSUzBSrRRWGyWkol2oqppY7SkOjCQlWbOCbtz3Wp6kYm1n/6lFULfdBYG+frR2m73yTP7eYlKVowEi5LhY8+iA8+XUrZaLrSXdkpTOHzIKIv/VrjGhlM2pGJ1Kz2G9+WZQXwvDAQvjW71oVO37sgrt4kWozMCjFTj7CGR7aRR05+ztIrlmzg1/yyFJNvoBsKpvLiaU9/9flv/1zKkxFBSIasyHdqZuViXIeVZtFmt2QiWAM6MXetPjLH/K6V6mrsy5vrAkZIk2+gCqeecE0lRBducrpdJQlwgZyi7JpzOVJXTlyPmTSWow+shgyeTh+kjfvrcXkm41eOxQVcnUoQLPqWdhOl7l0xVi/mf/+OZBSqCXydeWtdekKjzvSZ3sQlgX3d+EjD6KEbLiEIUR2PsKLPTI+YYuPFdy1PsW4E8F2p7GaQCYF67fQHz/JSx+mcghGgTpqP5R/+m/ZdbiaRKAcxUn4zh/Ksn+EUlmJi2bkUlmfPBw8ytvsfITW0YnI7vCQRlalE1K4fM1YOwxkNLMnUyzh9AzNXtNULCVuxAnFLN8AU1Me+5W4mTqKAkiS5Jw6QrRxK118n9OBQanocaBa0HuvpLu4jvV57Q3edUhZn0TBvHCSkASqhOhUAUrL1ev0ynDNlCQaiN1C9ap9TkQGQbkkL/ZAoYDO7qZWinXMiCIkKHm+svIb09C3nS5c4kxCIaoLOVcXegnYnXyEPYdk35Gq+LSoWXG7Gk1lczvp2Ndu0Joh5cgmiqyXy1IoSbEkxaK6CkUpVxKwGwTFGXlxPZRto94yOrPii0seXjr7uPrMW1OrudmP9jJ94QIeeIG//CtULOhuYB0+xR/fELVGr63Xlz6EX/sK6eRKWAy5Thjays/+QHlPTWwKeUggKmjf+vkse0P5xk1aPcj//oMEG9Tf+CrV7c0jQAVKGhOZiFrrVPMRWHdDOayxRpGI/H6T9OQNXOQyMLiLTr+dIHGvUISZKSjUrplJ9USHmCGVh017+I3TmGs5O6fxjam5OatWQxrrCkPKhJuj1D0AArqJe2qa90QzDNKa5p2Y/MQdWbERg9aK+iQQMm1SsK+sZ5UD6to3Tixt0x46eXZusz+V+ORgcKecOEstiE+AZrlE1UnVXz++xYC6nhhgyoTRMeruB9bbFGqCnEnzzqis3AhGS6YnirXBBrWMjkMskM/Bln109K25ykNnBjMHvdvk9AXMJk+mqFGMQ+oBqK1n+5xjVWPj1N0vlUr7U4idfITREe7uA8PApjLyQu2OlxKl2eiiU33Mks/KtteM199sfwoxC5hZWL9Zzl2knPbmpXd0mtoSn8QJDTV00HFKTAPGJ3FVv5RLkjTlKWootrf16XVZPYApo0nro/nG1F7N8hSI4+N25GDXQePAcWnjsSoWMLKwdpjf/SAknSWKtDTLfTWdr7UJdGbJIJiawVW9UCxIE6v8RmI79vTRVVkziJlUE+gkkod4gBJrlo8scVKIaf8bnM76T4Q2QWLnI6wZ5Pevkj8fQYc9WY2QeFBjXW10Gucz5RnPFHBlLxYKopNMFEFuPsK6TZhLvC5NoFnuTcR4m7Q7jcQW5LPw2jHac1hZouaSCNxOKAXd/fzRJwFHuKPYmkIn6sRhJFcScuYCglIJV/bC9JSdS96Uoinrk4X3LnLPFswmsM2J7Y73Jkbim9esenIOMxw8TjsOcTrX7EkL+9TIqj65PkKJklWbRicQoOA1ehOa5eMihEoFV/Xi1IQYyXc+mCGThfPvcN921PYMm9es2WGH1W1Vsxq4LFuIjpyira/ZKcTJ20SCl3pl5Jam+LSkWe49BRa3qlkhUoX2OZRVvTB+N5kQOeksb73Ngzswp70ubR0d35FMHS6NsnAWtg94HnuLNu/jRELkbHUs75FbY2RqIduqZrn3/gyzVu1ODKDipLB09+GdMTb1DK0jPsdP86a9pHFGsA12x3tPbbY7cSNyDjO8eY5e3a2W4zrK4vw+woqNcmccTUO7J90aUejUGek5sjsBZOtLdx+M3pRYc2vZ4nPkTd6y306tjxOf9qIzC9Bca5b33rFEpy/QwE6Ozf40CCoVWbZeJicx8nxRmzXLJWqXr5yszM7+XDOAN0fYDF8xOBvKdj4C5XMRa5T2zOiBRO3ylRMR24d/zr5LvdvEDF80GATlgizvgcIMRsfb5ggdT0SxHb5yMi57R3TNIN64zoHLTkd8dh/mfW9EbOnMlWa5BbEh15iXTMxVK3RSiC9cop4tYjSEddzfR1ixwf55jdAsnTmUHYd0kzgje01QVlfP3j57ZQg//phT9RixLT47DvCB48r6hE1ec41OLSat13x7yIuCLUTvfUDrNolRr2WmAdOT8tIG9+c1AhqaB3QiIopzZXd8H50A84+H8epHnK5FCC0LUjnYso9fP2mvvPziM+d2xzvG5BHQFuxOYz2xk9Lev0Jrh4XsY6jO7yNM3lXWh7lRfObD7ngp9Ce6gh83h05kPSdxb90wfnhZCZESnzwM7ebjZ4Jd5/nRLPdTyE90xfAnKPNpVkC5nYf+4TX63yEhU4nP3duycqO9gEd/Q3OCjgRolkvB8aDIXhOUhWmWjxxr3bMZ37nI6YXYu41PnfdZn7nUrMgq8/QjpNGDc3Ksr35CPZtl8jav6kVqyMScT7vjpZAjmbr8uuITS86Bj+E9dGfCunTFzNbtec3TjB5YBX/hoUf1ek1QpqlZ/qHY27DKSNdnls7LjB5K4YdZ5hed6vICweMxzveMHkhxh4fnlyQpvnOmWS6FANRWbzA5zZvsxHcSBNBPBTq6Y9Q/9dy8r5yU/t/tjpfa5Ae1jkqtoZ8QzXLJ1GD5adQst3qCDLP21GulhXnUrBqjxJ96jmuiLfQTp1muQP9fAAAA//912P1pR+eDpAAAAABJRU5ErkJggg==;" parent="Zxdvogi67uCtEpaAu3vM-2" vertex="1">
          <mxGeometry x="90" width="20" height="20" as="geometry" />
        </mxCell>
      </root>
    </mxGraphModel>
  </diagram>
</mxfile>
